<svg width="36" height="36" viewBox="0 0 36 36" fill="none" xmlns="http://www.w3.org/2000/svg">
<path d="M3 5H14.55L25 12.5V17.5V31H3V5Z" fill="#8A38F5" fill-opacity="0.17"/>
<path d="M29.55 19.35L21 27.9H17.55V24.45L26.1 15.9L29.55 19.35ZM34.65 18.15C34.65 18.6 34.2 19.05 33.75 19.5L30 23.25L28.65 21.9L32.55 18L31.65 17.1L30.6 18.15L27.15 14.7L30.45 11.55C30.75 11.25 31.35 11.25 31.8 11.55L33.9 13.65C34.2 13.95 34.2 14.55 33.9 15C33.6 15.3 33.3 15.6 33.3 15.9C33.3 16.2 33.6 16.5 33.9 16.8C34.35 17.25 34.8 17.7 34.65 18.15ZM4.5 30V6H15V13.5H22.5V15.75L25.5 12.75V12L16.5 3H4.5C2.85 3 1.5 4.35 1.5 6V30C1.5 31.65 2.85 33 4.5 33H22.5C24.15 33 25.5 31.65 25.5 30H4.5ZM16.5 25.65C16.2 25.65 15.9 25.8 15.75 25.8L15 22.5H12.75L9.6 25.05L10.5 21H8.25L6.75 28.5H9L13.35 24.6L14.25 28.05H15.75L16.5 27.9V25.65Z" fill="#8A38F5"/>
</svg>
