<svg width="33" height="33" viewBox="0 0 33 33" fill="none" xmlns="http://www.w3.org/2000/svg">
<g clip-path="url(#clip0_119_10)">
<path d="M12.3764 15.8125C12.9229 15.8129 13.447 16.0301 13.8334 16.4166C14.2199 16.803 14.4371 17.3271 14.4375 17.8736V17.8764C14.4371 18.4229 14.2199 18.947 13.8334 19.3334C13.447 19.7199 12.9229 19.9371 12.3764 19.9375H12.3736C11.8271 19.9371 11.303 19.7199 10.9166 19.3334C10.5301 18.947 10.3129 18.4229 10.3125 17.8764V17.8736C10.3129 17.3271 10.5301 16.803 10.9166 16.4166C11.303 16.0301 11.8271 15.8129 12.3736 15.8125H12.3764ZM20.6264 15.8125C21.1729 15.8129 21.697 16.0301 22.0834 16.4166C22.4699 16.803 22.6871 17.3271 22.6875 17.8736V17.8764C22.6871 18.4229 22.4699 18.947 22.0834 19.3334C21.697 19.7199 21.1729 19.9371 20.6264 19.9375H20.6236C20.0771 19.9371 19.553 19.7199 19.1666 19.3334C18.7801 18.947 18.5629 18.4229 18.5625 17.8764V17.8736C18.5629 17.3271 18.7801 16.803 19.1666 16.4166C19.553 16.0301 20.0771 15.8129 20.6236 15.8125H20.6264Z" fill="#8A38F5"/>
<path d="M16.5 0C17.1045 0.00106941 17.6917 0.201271 18.171 0.569641C18.6503 0.938011 18.9948 1.45402 19.1513 2.03788C19.3079 2.62173 19.2677 3.24089 19.0369 3.7996C18.8062 4.35831 18.3979 4.82544 17.875 5.12875V6.875C23.7641 6.875 28.6894 10.989 29.9406 16.5H30.25C30.9793 16.5 31.6788 16.7897 32.1945 17.3055C32.7103 17.8212 33 18.5207 33 19.25C33 19.9793 32.7103 20.6788 32.1945 21.1945C31.6788 21.7103 30.9793 22 30.25 22H29.9406C28.6894 27.511 23.7641 31.625 17.875 31.625H15.125C9.23588 31.625 4.31063 27.511 3.05937 22H2.75C2.02065 22 1.32118 21.7103 0.805456 21.1945C0.289731 20.6788 0 19.9793 0 19.25C0 18.5207 0.289731 17.8212 0.805456 17.3055C1.32118 16.7897 2.02065 16.5 2.75 16.5H3.05937C4.31063 10.989 9.23588 6.875 15.125 6.875V5.12875C14.6021 4.82544 14.1938 4.35831 13.963 3.7996C13.7323 3.24089 13.6921 2.62173 13.8487 2.03788C14.0052 1.45402 14.3497 0.938011 14.829 0.569641C15.3083 0.201271 15.8955 0.00106941 16.5 0ZM16.5 11.3437C12.5538 11.3437 10.0609 12.6596 8.65563 14.6589C7.31087 16.5729 7.15962 18.8402 7.25037 20.3802C7.37687 22.495 9.23037 23.7187 11.0124 23.7187H21.9876C23.7696 23.7187 25.6217 22.495 25.7482 20.3802C25.839 18.8402 25.6891 16.5729 24.343 14.6602C22.9377 12.6582 20.4476 11.3437 16.5 11.3437Z" fill="#8A38F5"/>
</g>
<defs>
<clipPath id="clip0_119_10">
<rect width="33" height="33" fill="white"/>
</clipPath>
</defs>
</svg>
