<svg width="28" height="28" viewBox="0 0 28 28" fill="none" xmlns="http://www.w3.org/2000/svg">
<path d="M13.7672 2.29456C11.4981 2.29456 9.27998 2.96742 7.39329 4.22807C5.5066 5.48872 4.0361 7.28052 3.16775 9.3769C2.2994 11.4733 2.0722 13.7801 2.51489 16.0056C2.95757 18.2311 4.05024 20.2753 5.65474 21.8798C7.25924 23.4843 9.3035 24.577 11.529 25.0197C13.7545 25.4624 16.0613 25.2352 18.1577 24.3668C20.2541 23.4985 22.0459 22.028 23.3065 20.1413C24.5672 18.2546 25.24 16.0365 25.24 13.7673C25.24 12.2607 24.9433 10.7688 24.3667 9.3769C23.7902 7.98496 22.9451 6.72021 21.8797 5.65486C20.8144 4.58951 19.5496 3.74443 18.1577 3.16787C16.7657 2.59131 15.2739 2.29456 13.7672 2.29456ZM11.4727 18.9301V8.60459L18.3564 13.7673L11.4727 18.9301Z" fill="#0FA258"/>
</svg>
