<svg width="21" height="21" viewBox="0 0 21 21" fill="none" xmlns="http://www.w3.org/2000/svg">
<g clip-path="url(#clip0_115_110)">
<path d="M7.74461 9.89478C8.08661 9.895 8.41453 10.031 8.65636 10.2728C8.89819 10.5146 9.03415 10.8425 9.03437 11.1845V11.1863C9.03415 11.5283 8.89819 11.8562 8.65636 12.098C8.41453 12.3398 8.08661 12.4758 7.74461 12.476H7.74289C7.40089 12.4758 7.07297 12.3398 6.83114 12.098C6.58931 11.8562 6.45335 11.5283 6.45312 11.1863V11.1845C6.45335 10.8425 6.58931 10.5146 6.83114 10.2728C7.07297 10.031 7.40089 9.895 7.74289 9.89478H7.74461ZM12.9071 9.89478C13.2491 9.895 13.577 10.031 13.8189 10.2728C14.0607 10.5146 14.1966 10.8425 14.1969 11.1845V11.1863C14.1966 11.5283 14.0607 11.8562 13.8189 12.098C13.577 12.3398 13.2491 12.4758 12.9071 12.476H12.9054C12.5634 12.4758 12.2355 12.3398 11.9936 12.098C11.7518 11.8562 11.6159 11.5283 11.6156 11.1863V11.1845C11.6159 10.8425 11.7518 10.5146 11.9936 10.2728C12.2355 10.031 12.5634 9.895 12.9054 9.89478H12.9071Z" fill="#FFCE00"/>
<path d="M10.325 0C10.7033 0.00066919 11.0707 0.125947 11.3706 0.356457C11.6705 0.586967 11.8861 0.909867 11.9841 1.27522C12.082 1.64057 12.0569 2.02801 11.9125 2.37763C11.7681 2.72725 11.5126 3.01956 11.1854 3.20935V4.30208C14.8706 4.30208 17.9526 6.87645 18.7356 10.325H18.9292C19.3856 10.325 19.8233 10.5063 20.146 10.829C20.4687 11.1517 20.65 11.5894 20.65 12.0458C20.65 12.5022 20.4687 12.9399 20.146 13.2626C19.8233 13.5854 19.3856 13.7667 18.9292 13.7667H18.7356C17.9526 17.2152 14.8706 19.7896 11.1854 19.7896H9.46458C5.77942 19.7896 2.69741 17.2152 1.91443 13.7667H1.72083C1.26444 13.7667 0.826739 13.5854 0.50402 13.2626C0.181302 12.9399 0 12.5022 0 12.0458C0 11.5894 0.181302 11.1517 0.50402 10.829C0.826739 10.5063 1.26444 10.325 1.72083 10.325H1.91443C2.69741 6.87645 5.77942 4.30208 9.46458 4.30208V3.20935C9.13739 3.01956 8.88185 2.72725 8.73748 2.37763C8.59311 2.02801 8.56796 1.64057 8.66591 1.27522C8.76386 0.909867 8.97945 0.586967 9.27935 0.356457C9.57925 0.125947 9.94675 0.00066919 10.325 0ZM10.325 7.09844C7.8556 7.09844 6.29567 7.92186 5.41632 9.1729C4.57484 10.3706 4.48019 11.7894 4.53698 12.7531C4.61613 14.0764 5.77598 14.8422 6.89108 14.8422H13.7589C14.874 14.8422 16.033 14.0764 16.1122 12.7531C16.1689 11.7894 16.0752 10.3706 15.2328 9.17376C14.3535 7.92099 12.7953 7.09844 10.325 7.09844Z" fill="#FFCE00"/>
</g>
<defs>
<clipPath id="clip0_115_110">
<rect width="20.65" height="20.65" fill="white"/>
</clipPath>
</defs>
</svg>
