<svg width="36" height="36" viewBox="0 0 36 36" fill="none" xmlns="http://www.w3.org/2000/svg">
<g clip-path="url(#clip0_119_22)">
<path d="M13.5015 17.25C14.0977 17.2504 14.6694 17.4874 15.091 17.909C15.5126 18.3306 15.7496 18.9023 15.75 19.4985V19.5015C15.7496 20.0977 15.5126 20.6694 15.091 21.091C14.6694 21.5126 14.0977 21.7496 13.5015 21.75H13.4985C12.9023 21.7496 12.3306 21.5126 11.909 21.091C11.4874 20.6694 11.2504 20.0977 11.25 19.5015V19.4985C11.2504 18.9023 11.4874 18.3306 11.909 17.909C12.3306 17.4874 12.9023 17.2504 13.4985 17.25H13.5015ZM22.5015 17.25C23.0977 17.2504 23.6694 17.4874 24.091 17.909C24.5126 18.3306 24.7496 18.9023 24.75 19.4985V19.5015C24.7496 20.0977 24.5126 20.6694 24.091 21.091C23.6694 21.5126 23.0977 21.7496 22.5015 21.75H22.4985C21.9023 21.7496 21.3306 21.5126 20.909 21.091C20.4874 20.6694 20.2504 20.0977 20.25 19.5015V19.4985C20.2504 18.9023 20.4874 18.3306 20.909 17.909C21.3306 17.4874 21.9023 17.2504 22.4985 17.25H22.5015Z" fill="#3B63FF"/>
<path d="M18 0C18.6594 0.00116663 19.3001 0.219568 19.8229 0.621426C20.3457 1.02328 20.7216 1.58621 20.8924 2.22314C21.0631 2.86007 21.0193 3.53552 20.7676 4.14502C20.5159 4.75452 20.0704 5.26412 19.5 5.595V7.5C25.9245 7.5 31.2975 11.988 32.6625 18H33C33.7957 18 34.5587 18.3161 35.1213 18.8787C35.6839 19.4413 36 20.2044 36 21C36 21.7956 35.6839 22.5587 35.1213 23.1213C34.5587 23.6839 33.7957 24 33 24H32.6625C31.2975 30.012 25.9245 34.5 19.5 34.5H16.5C10.0755 34.5 4.7025 30.012 3.3375 24H3C2.20435 24 1.44129 23.6839 0.87868 23.1213C0.316071 22.5587 0 21.7956 0 21C0 20.2044 0.316071 19.4413 0.87868 18.8787C1.44129 18.3161 2.20435 18 3 18H3.3375C4.7025 11.988 10.0755 7.5 16.5 7.5V5.595C15.9296 5.26412 15.4841 4.75452 15.2324 4.14502C14.9807 3.53552 14.9369 2.86007 15.1076 2.22314C15.2784 1.58621 15.6543 1.02328 16.1771 0.621426C16.6999 0.219568 17.3406 0.00116663 18 0ZM18 12.375C13.695 12.375 10.9755 13.8105 9.4425 15.9915C7.9755 18.0795 7.8105 20.553 7.9095 22.233C8.0475 24.54 10.0695 25.875 12.0135 25.875H23.9865C25.9305 25.875 27.951 24.54 28.089 22.233C28.188 20.553 28.0245 18.0795 26.556 15.993C25.023 13.809 22.3065 12.375 18 12.375Z" fill="#3B63FF"/>
</g>
<defs>
<clipPath id="clip0_119_22">
<rect width="36" height="36" fill="white"/>
</clipPath>
</defs>
</svg>
