<svg width="30" height="30" viewBox="0 0 30 30" fill="none" xmlns="http://www.w3.org/2000/svg">
<path opacity="0.2" d="M15 26.25C17.225 26.25 19.4001 25.5902 21.2502 24.354C23.1002 23.1179 24.5422 21.3609 25.3936 19.3052C26.2451 17.2495 26.4679 14.9875 26.0338 12.8052C25.5997 10.6229 24.5283 8.61839 22.9549 7.04505C21.3816 5.47171 19.377 4.40025 17.1948 3.96617C15.0125 3.53208 12.7505 3.75487 10.6948 4.60636C8.63914 5.45784 6.88213 6.89978 5.64596 8.74984C4.40979 10.5999 3.74999 12.775 3.74999 15C3.74999 17.9837 4.93526 20.8452 7.04504 22.955C9.15483 25.0647 12.0163 26.25 15 26.25Z" fill="#FFCE00"/>
<path d="M15 27.1875C17.4105 27.1875 19.7668 26.4727 21.771 25.1335C23.7752 23.7944 25.3373 21.8909 26.2598 19.664C27.1822 17.437 27.4236 14.9865 26.9533 12.6223C26.4831 10.2582 25.3223 8.08659 23.6179 6.38214C21.9134 4.67768 19.7418 3.51694 17.3777 3.04668C15.0135 2.57642 12.563 2.81778 10.336 3.74022C8.10907 4.66266 6.20564 6.22476 4.86646 8.22899C3.52728 10.2332 2.81249 12.5895 2.81249 15C2.81591 18.2313 4.10104 21.3292 6.3859 23.6141C8.67076 25.899 11.7687 27.1841 15 27.1875ZM15 4.6875C17.0396 4.6875 19.0334 5.29232 20.7293 6.42547C22.4252 7.55862 23.747 9.16921 24.5275 11.0536C25.308 12.9379 25.5123 15.0114 25.1143 17.0119C24.7164 19.0123 23.7343 20.8498 22.292 22.292C20.8498 23.7343 19.0123 24.7164 17.0119 25.1143C15.0114 25.5123 12.9379 25.308 11.0536 24.5275C9.16921 23.747 7.55862 22.4252 6.42546 20.7293C5.29231 19.0334 4.68749 17.0396 4.68749 15C4.6906 12.2659 5.77808 9.64468 7.71138 7.71139C9.64468 5.77809 12.2659 4.6906 15 4.6875ZM10.7953 20.5078C10.9418 20.5889 11.1073 20.6292 11.2746 20.6247C11.4419 20.6201 11.605 20.5709 11.7469 20.482L17.8125 16.691V19.6875C17.8125 19.9361 17.9113 20.1746 18.0871 20.3504C18.2629 20.5262 18.5014 20.625 18.75 20.625C18.9986 20.625 19.2371 20.5262 19.4129 20.3504C19.5887 20.1746 19.6875 19.9361 19.6875 19.6875V10.3125C19.6875 10.0639 19.5887 9.8254 19.4129 9.64959C19.2371 9.47377 18.9986 9.375 18.75 9.375C18.5014 9.375 18.2629 9.47377 18.0871 9.64959C17.9113 9.8254 17.8125 10.0639 17.8125 10.3125V13.309L11.7469 9.51797C11.605 9.4293 11.442 9.3802 11.2747 9.37579C11.1075 9.37138 10.9421 9.41181 10.7957 9.49288C10.6494 9.57395 10.5274 9.6927 10.4424 9.83683C10.3574 9.98095 10.3126 10.1452 10.3125 10.3125V19.6875C10.3124 19.8549 10.3571 20.0192 10.4421 20.1635C10.527 20.3077 10.6489 20.4266 10.7953 20.5078ZM12.1875 12.0035L16.9816 15L12.1875 17.9965V12.0035Z" fill="#FFCE00"/>
</svg>
