<svg width="28" height="28" viewBox="0 0 28 28" fill="none" xmlns="http://www.w3.org/2000/svg">
<mask id="mask0_13_112" style="mask-type:luminance" maskUnits="userSpaceOnUse" x="1" y="1" width="26" height="26">
<path d="M13.9999 25.6667C15.5323 25.6686 17.0499 25.3677 18.4656 24.7813C19.8814 24.1948 21.1672 23.3345 22.2494 22.2495C23.3343 21.1674 24.1947 19.8815 24.7811 18.4658C25.3676 17.05 25.6685 15.5324 25.6666 14C25.6685 12.4677 25.3676 10.95 24.7811 9.53434C24.1947 8.11862 23.3343 6.83273 22.2494 5.75055C21.1672 4.66564 19.8814 3.80526 18.4656 3.21883C17.0499 2.63241 15.5323 2.33149 13.9999 2.33338C12.4676 2.33149 10.9499 2.63241 9.53421 3.21883C8.1185 3.80526 6.83261 4.66564 5.75043 5.75055C4.66552 6.83273 3.80514 8.11862 3.21871 9.53434C2.63228 10.95 2.33137 12.4677 2.33326 14C2.33137 15.5324 2.63228 17.05 3.21871 18.4658C3.80514 19.8815 4.66552 21.1674 5.75043 22.2495C6.83261 23.3345 8.1185 24.1948 9.53421 24.7813C10.9499 25.3677 12.4676 25.6686 13.9999 25.6667Z" fill="white" stroke="white" stroke-width="2.33333" stroke-linejoin="round"/>
<path d="M9.33325 14L12.8333 17.5L19.8333 10.5" stroke="black" stroke-width="2.33333" stroke-linecap="round" stroke-linejoin="round"/>
</mask>
<g mask="url(#mask0_13_112)">
<path d="M0 0H28V28H0V0Z" fill="#BA86FF"/>
</g>
</svg>
