<svg width="36" height="36" viewBox="0 0 36 36" fill="none" xmlns="http://www.w3.org/2000/svg">
<path d="M10.5 8.5L18 7L25.5 8.5L28 30H8L10.5 8.5Z" fill="#FFCE00" fill-opacity="0.15"/>
<path fill-rule="evenodd" clip-rule="evenodd" d="M18 2.25C17.4032 2.25 16.831 2.48705 16.409 2.90901C15.987 3.33097 15.75 3.90326 15.75 4.5V4.725C13.2089 5.24369 10.9251 6.62441 9.28504 8.63347C7.645 10.6425 6.74945 13.1565 6.74998 15.75V24.75L4.03873 27.738C2.72698 29.1848 3.75298 31.5 5.70373 31.5H14.103C14.498 32.184 15.066 32.7521 15.7501 33.147C16.4341 33.5419 17.2101 33.7498 18 33.7498C18.7899 33.7498 19.5658 33.5419 20.2499 33.147C20.9339 32.7521 21.502 32.184 21.897 31.5H30.2962C32.247 31.5 33.273 29.1825 31.9612 27.738L29.25 24.75V15.75C29.2505 13.1565 28.355 10.6425 26.7149 8.63347C25.0749 6.62441 22.7911 5.24369 20.25 4.725V4.5C20.25 3.90326 20.0129 3.33097 19.591 2.90901C19.169 2.48705 18.5967 2.25 18 2.25ZM10.125 26.055L9.24748 27.018L8.24398 28.125H27.756L26.7502 27.018L25.875 26.0528V15.75C25.875 14.7158 25.6713 13.6918 25.2755 12.7364C24.8798 11.7809 24.2997 10.9128 23.5684 10.1815C22.8372 9.45027 21.9691 8.8702 21.0136 8.47445C20.0582 8.07869 19.0341 7.875 18 7.875C16.9658 7.875 15.9418 8.07869 14.9864 8.47445C14.0309 8.8702 13.1628 9.45027 12.4315 10.1815C11.7003 10.9128 11.1202 11.7809 10.7244 12.7364C10.3287 13.6918 10.125 14.7158 10.125 15.75V26.055Z" fill="#FFCE00"/>
</svg>
