<svg width="34" height="34" viewBox="0 0 34 34" fill="none" xmlns="http://www.w3.org/2000/svg">
<g clip-path="url(#clip0_119_5)">
<path d="M12.7514 16.2917C13.3145 16.2921 13.8544 16.5159 14.2526 16.9141C14.6508 17.3123 14.8746 17.8522 14.875 18.4153V18.4181C14.8746 18.9812 14.6508 19.5211 14.2526 19.9193C13.8544 20.3175 13.3145 20.5413 12.7514 20.5417H12.7486C12.1855 20.5413 11.6456 20.3175 11.2474 19.9193C10.8492 19.5211 10.6254 18.9812 10.625 18.4181V18.4153C10.6254 17.8522 10.8492 17.3123 11.2474 16.9141C11.6456 16.5159 12.1855 16.2921 12.7486 16.2917H12.7514ZM21.2514 16.2917C21.8145 16.2921 22.3544 16.5159 22.7526 16.9141C23.1508 17.3123 23.3746 17.8522 23.375 18.4153V18.4181C23.3746 18.9812 23.1508 19.5211 22.7526 19.9193C22.3544 20.3175 21.8145 20.5413 21.2514 20.5417H21.2486C20.6855 20.5413 20.1456 20.3175 19.7474 19.9193C19.3492 19.5211 19.1254 18.9812 19.125 18.4181V18.4153C19.1254 17.8522 19.3492 17.3123 19.7474 16.9141C20.1456 16.5159 20.6855 16.2921 21.2486 16.2917H21.2514Z" fill="#0FA258"/>
<path d="M17 0C17.6228 0.00110181 18.2279 0.20737 18.7216 0.586902C19.2154 0.966435 19.5704 1.49809 19.7317 2.09963C19.8929 2.70118 19.8515 3.3391 19.6138 3.91474C19.3761 4.49038 18.9554 4.97167 18.4167 5.28417V7.08333C24.4842 7.08333 29.5587 11.322 30.8479 17H31.1667C31.9181 17 32.6388 17.2985 33.1701 17.8299C33.7015 18.3612 34 19.0819 34 19.8333C34 20.5848 33.7015 21.3054 33.1701 21.8368C32.6388 22.3682 31.9181 22.6667 31.1667 22.6667H30.8479C29.5587 28.3447 24.4842 32.5833 18.4167 32.5833H15.5833C9.51575 32.5833 4.44125 28.3447 3.15208 22.6667H2.83333C2.08189 22.6667 1.36122 22.3682 0.829864 21.8368C0.298511 21.3054 0 20.5848 0 19.8333C0 19.0819 0.298511 18.3612 0.829864 17.8299C1.36122 17.2985 2.08189 17 2.83333 17H3.15208C4.44125 11.322 9.51575 7.08333 15.5833 7.08333V5.28417C15.0446 4.97167 14.6239 4.49038 14.3862 3.91474C14.1485 3.3391 14.1071 2.70118 14.2683 2.09963C14.4296 1.49809 14.7846 0.966435 15.2784 0.586902C15.7721 0.20737 16.3772 0.00110181 17 0ZM17 11.6875C12.9342 11.6875 10.3657 13.0433 8.91792 15.1031C7.53242 17.0751 7.37658 19.4112 7.47008 20.9978C7.60042 23.1767 9.51008 24.4375 11.3461 24.4375H22.6539C24.4899 24.4375 26.3982 23.1767 26.5285 20.9978C26.622 19.4112 26.4676 17.0751 25.0807 15.1045C23.6328 13.0418 21.0672 11.6875 17 11.6875Z" fill="#0FA258"/>
</g>
<defs>
<clipPath id="clip0_119_5">
<rect width="34" height="34" fill="white"/>
</clipPath>
</defs>
</svg>
